<svg id="Layer_1" data-name="Layer 1" xmlns="http://www.w3.org/2000/svg" viewBox="0 0 400 300" width="406" height="306" class="illustration styles_illustrationTablet__1DWOa"><title>_</title><ellipse cx="200" cy="248.81" rx="117.72" ry="8.43" opacity="0.08"></ellipse><rect x="236.2" y="236.41" width="53.93" height="13.24" transform="translate(526.33 486.06) rotate(-180)" fill="#d8d8d8"></rect><rect x="232.24" y="223.17" width="48.6" height="13.24" transform="translate(513.07 459.58) rotate(-180)" fill="#e6e6e6"></rect><path d="M266.54,215s6.38-1.74,7.76-7.67c0,0-9.87-2-10.15,8.2Z" fill="#3498db" opacity="0.58"></path><path d="M265.76,214.33s4.45-7,.54-13.61c0,0-7.51,4.76-4.17,13.63Z" fill="#3498db" opacity="0.73"></path><path d="M264.62,214.34s-2.36-7.43-9.47-8.84c0,0-1.33,4.82,4.61,8.86Z" fill="#3498db"></path><polygon points="269.24 214.17 267.95 223.01 259.81 223.04 258.61 214.22 269.24 214.17" fill="#24285b"></polygon><rect x="114.5" y="42.76" width="192.92" height="140.09" transform="translate(421.92 225.61) rotate(-180)" fill="#24285b"></rect><path d="M192.33,114.71l-4.1,5.15a26.9,26.9,0,0,0-5.74,19.38l.79,8,12-10.9Z" fill="#878787" opacity="0.55"></path><path d="M221.12,114.71l4.11,5.15A26.89,26.89,0,0,1,231,139.24l-.78,8-12-10.9Z" fill="#878787" opacity="0.55"></path><path d="M201.25,138s3.74,22-2.41,23.85-9-8.07-17.12-2.17,2.29,12.42-12.05,10.61-19.89,5.26-16.52,12.52H259s5.31-6.73-.6-11.31a11.22,11.22,0,0,0-9.1-2,3,3,0,0,1-3.5-3c.06-2.16-.31-4.63-2-6.13-2-1.82-6.25.08-9.41,2a18.91,18.91,0,0,1-12,2.69c-3.67-.44-7.42-1.65-8.45-4.68-2.17-6.38-.85-22.81-.85-22.81Z" fill="#fff" opacity="0.55"></path><path d="M206.74,69.07s-30.3,16.63-11.45,67.26H218.2C237.05,85.7,206.74,69.07,206.74,69.07Z" fill="#c1c1c1"></path><polygon points="218.2 136.33 217.18 140.21 196.4 140.21 195.29 135.87 218.2 136.33" fill="#878787"></polygon><circle cx="206.96" cy="98.77" r="7.78" fill="#e6e6e6"></circle><circle cx="128.29" cy="57.06" r="4.87" fill="#ffd200"></circle><circle cx="142" cy="57.06" r="4.87" fill="#3498db"></circle><circle cx="155.12" cy="57.06" r="4.87" fill="#fff"></circle><rect x="268.34" y="117.64" width="27.32" height="4.6" fill="#fff"></rect><rect x="268.34" y="129.76" width="27.32" height="4.6" fill="#fff"></rect><rect x="251.77" y="117.64" width="8.06" height="4.6" fill="#3498db"></rect><rect x="251.77" y="129.76" width="8.06" height="4.6" fill="#ffd200"></rect><circle cx="270.39" cy="89.42" r="17.99" fill="#fff"></circle><path d="M270.39,71.43v18L288,85.76S285.55,71.31,270.39,71.43Z" fill="#ffd200"></path><path d="M270.39,89.42l-10,15s10.08,7.67,21.76-1.35c0,0,8-5.79,5.86-17.27Z" fill="#3498db"></path><path d="M105.81,123.49s-38,27-17.43,73.5H94s-3-33.74,11.77-49.71S105.81,123.49,105.81,123.49Z" fill="#3498db"></path><path d="M105.81,123.49s-38,27-17.43,73.5H94s-3-33.74,11.77-49.71S105.81,123.49,105.81,123.49Z" fill="#fff" opacity="0.2"></path><polygon points="116.17 108.91 119.41 118.61 111.73 123.49 108.97 106.68 116.17 108.91" fill="#f4a28c"></polygon><path d="M106.33,97.3a6,6,0,0,1,10-1.67c3.26,3.48,7.2,9,2.75,12.05-6.82,4.62-13.08-4-13.08-4A11,11,0,0,1,106.33,97.3Z" fill="#f4a28c"></path><path d="M111.32,103.25s-1.75-1.46-2.54.62,2.3,3.07,3.22,2S111.32,103.25,111.32,103.25Z" fill="#f4a28c"></path><path d="M102.77,128.25a19.62,19.62,0,0,1,12.31-10.75c10.43-3.13,29.63.3,35.49,10.06,8,13.35-3.72,55.78-3.72,55.78l-35,2.72S92.52,151.29,102.77,128.25Z" fill="#3498db"></path><polygon points="146.85 183.34 142.24 243.6 134.95 243.6 128.44 196.78 112.33 186.06 146.85 183.34" fill="#24285b"></polygon><polygon points="112.33 186.06 102.27 243.6 110.08 243.6 126.96 195.8 112.33 186.06" fill="#24285b"></polygon><path d="M118.11,116.59s-16.4,52.8,31,56.31l-2.21,10.44-35,2.72S99.45,166.67,100,139.43c0,0,.3-13.47,9.78-19.42A21.27,21.27,0,0,1,118.11,116.59Z" opacity="0.08"></path><path d="M104.1,243.48,99.39,247a1,1,0,0,0,.62,1.86h7.89a1,1,0,0,0,1-1v-4.3Z" fill="#3498db"></path><path d="M141.33,243.48l4.43,3.47a1,1,0,0,1-.65,1.86H139.5a3,3,0,0,1-3-3v-2.34Z" fill="#3498db"></path><path d="M89.27,197s.77,11.3,6.13,8.36S94,197,94,197Z" fill="#f4a28c"></path><path d="M106.59,106.32s2.18,3.94,5.77,2.72,1-9.73,1-9.73,4.35-6.27,3.73-11.25c-.35-2.72-4-3.13-5.31-.69A4.94,4.94,0,0,1,107.61,90C101.48,90.63,95.87,100.3,106.59,106.32Z" fill="#ffd200"></path><path d="M131.42,132.23a9.12,9.12,0,0,1,12.8-11.76c5.72,3.23,11.47,8.95,13.73,19.05,5.11,22.85,6.51,50.55,6.51,50.55l-5.87.64s-6.46-28.47-17.49-44C138.46,143.05,133.69,137.22,131.42,132.23Z" fill="#3498db"></path><path d="M131.42,132.23a9.12,9.12,0,0,1,12.8-11.76c5.72,3.23,11.47,8.95,13.73,19.05,5.11,22.85,6.51,50.55,6.51,50.55l-5.87.64s-6.46-28.47-17.49-44C138.46,143.05,133.69,137.22,131.42,132.23Z" fill="#fff" opacity="0.2"></path><path d="M159.76,190.58s-3,8.36.79,8.82c5,.59,3.91-9.33,3.91-9.33Z" fill="#f4a28c"></path><polygon points="232.89 195.34 236.41 175.41 211.41 175.41 209.24 192.4 197.77 192.56 197.77 195.34 232.89 195.34" fill="#ffd200"></polygon><polygon points="213.52 177.71 211.81 192.14 230.43 192.14 232.6 177.71 213.52 177.71" fill="#fff"></polygon><rect x="190.26" y="194.68" width="55.95" height="54.97" fill="#d8d8d8"></rect><path d="M208.67,194.68s-15.1,43.5,14.51,54.95H190.12V194.68Z" opacity="0.08"></path><rect x="124.51" y="75.09" width="58.92" height="14.68" rx="5.04" fill="#c1c1c1"></rect><path d="M134.14,79.51H136V84h2.85v1.45h-4.67Z" fill="#fff"></path><path d="M143.26,84.43h-2.07l-.29,1H139l2.22-5.9h2l2.22,5.9h-1.91Zm-.38-1.27L142.23,81l-.65,2.12Z" fill="#fff"></path><path d="M149.59,79.51h1.82V83a2.92,2.92,0,0,1-.16,1,2.15,2.15,0,0,1-.51.81,2,2,0,0,1-.73.49,3.74,3.74,0,0,1-1.28.2,8.18,8.18,0,0,1-.94-.06,2.44,2.44,0,0,1-.85-.24,2.25,2.25,0,0,1-.62-.51,1.89,1.89,0,0,1-.39-.68,3.6,3.6,0,0,1-.17-1V79.51h1.82v3.6a1,1,0,0,0,.27.75,1,1,0,0,0,.74.27,1,1,0,0,0,.74-.26,1.06,1.06,0,0,0,.26-.76Z" fill="#fff"></path><path d="M152.63,79.51h1.7l2.22,3.26V79.51h1.72v5.9h-1.72l-2.21-3.24v3.24h-1.71Z" fill="#fff"></path><path d="M163.4,83l1.6.48a3,3,0,0,1-.51,1.12,2.19,2.19,0,0,1-.86.68,3.25,3.25,0,0,1-1.3.23,3.71,3.71,0,0,1-1.57-.28,2.52,2.52,0,0,1-1.06-1,3.38,3.38,0,0,1-.44-1.8A3,3,0,0,1,160,80.2a3.53,3.53,0,0,1,4-.34,2.63,2.63,0,0,1,.95,1.39l-1.61.35a1.19,1.19,0,0,0-.18-.39,1,1,0,0,0-.37-.32,1,1,0,0,0-.49-.11,1.06,1.06,0,0,0-.95.49,2.1,2.1,0,0,0-.25,1.16,2.2,2.2,0,0,0,.3,1.35,1,1,0,0,0,.83.36,1,1,0,0,0,.79-.29A1.82,1.82,0,0,0,163.4,83Z" fill="#fff"></path><path d="M165.89,79.51h1.82v2.07h2V79.51h1.83v5.9H169.7V83h-2v2.39h-1.82Z" fill="#fff"></path><rect x="149.57" y="95.75" width="29.79" height="17.57" fill="#3498db"></rect></svg>