<svg id="Layer_1" data-name="Layer 1" xmlns="http://www.w3.org/2000/svg" viewBox="0 0 400 300" width="406" height="306" class="illustration styles_illustrationTablet__1DWOa"><title>_</title><path d="M286.25,65.81c31.21,10.64,60.45,39.87,61.82,77.53,1.38,38-16.32,73.58-67.52,91.32-52.25,18.1-185.46,22.72-212.76-28.09s-21.72-115.89,34-138.83C140.81,51.65,225.31,45,286.25,65.81Z" fill="#e6e6e6" opacity="0.3"></path><polygon points="310.77 152.91 273.7 152.91 283.91 135.8 320.98 135.8 310.77 152.91" fill="#ffd200"></polygon><polygon points="310.77 161.99 273.7 161.99 283.91 179.1 320.98 179.1 310.77 161.99" fill="#ffd200"></polygon><rect x="210.87" y="237.35" width="72.98" height="17.92" fill="#d8d8d8"></rect><rect x="223.45" y="219.44" width="65.76" height="17.92" fill="#e6e6e6"></rect><polyline points="260.41 255.63 247.98 219.44 234.37 219.44 242.45 255.27 259.9 255.63" opacity="0.08"></polyline><path d="M228.83,71.2c-.6.32-53.48,7.13-60.59,21.62s55.24,4.51,55.24,4.51Z" fill="#3498db"></path><polygon points="127.74 255.28 110.74 255.28 140.65 172.35 157.64 172.35 127.74 255.28" fill="#24285b"></polygon><polygon points="254.35 255.27 237.36 255.27 216.93 198.62 207.45 172.35 224.44 172.35 231.38 191.58 243.95 226.45 254.35 255.27" fill="#24285b"></polygon><path d="M261,158.41a78.47,78.47,0,0,1-78.45,78.46A78.46,78.46,0,1,1,261,157C261,157.47,261,157.94,261,158.41Z" fill="#e6e6e6"></path><circle cx="182.55" cy="158.42" r="55.4" fill="#c9c9c9"></circle><circle cx="182.55" cy="158.42" r="33.77" fill="#e6e6e6"></circle><circle cx="182.55" cy="158.42" r="16.28" fill="#c9c9c9"></circle><path d="M261,158.41a77.52,77.52,0,0,1-.53,9.07,17.23,17.23,0,0,1-1.76,0c-4.68,0-9.69.86-13.06,4.12-4.62,4.47,1.24,14.65,3,19.61a27.94,27.94,0,0,1,1.59,6.8,77.81,77.81,0,0,1-8.78,12.14,24.19,24.19,0,0,1-4,.48,2.17,2.17,0,0,1-1.51-.33c-1.09-1,.44-2.5,1.43-3.57,2.3-2.48,1.52-6.41.59-9.67q-3.13-11-6.26-21.94c-.55-1.94-1.27-4.09-3.05-5a4.79,4.79,0,0,0-5.63,1.39,9.05,9.05,0,0,0-1.87,5.83c-.09,5.42,2.42,10.5,4,15.69s1.92,11.43-1.72,15.45a2.94,2.94,0,0,1-2.26,1.2c-1.64-.12-2.18-2.24-2.19-3.88,0-4.07.51-8.17-.1-12.19-1.3-8.56-7.71-16.14-7.09-24.77l-20.61-5.71c-2.07-.57-4.67-2-4.06-4.08.5-1.67,2.69-2,4.44-2l36.21.26,18.43.13c5,0,9.82-1.16,14.83-.48C261,157.47,261,157.94,261,158.41Z" opacity="0.08"></path><rect x="182.55" y="152.91" width="133.94" height="9.08" fill="#24285b"></rect><rect x="182.55" y="152.91" width="133.94" height="9.08" fill="#fff" opacity="0.27"></rect><path d="M219.56,198.18s-.54,2.83-2.92,3.41-2.64,3-.37,3.32,7.43-3.4,7.43-3.4l-.9-4.39Z" fill="#3498db"></path><path d="M240,198.18s-.54,2.83-2.92,3.41-2.64,3-.37,3.32,7.42-3.4,7.42-3.4l-.89-4.39Z" fill="#3498db"></path><path d="M232.55,51A26.46,26.46,0,0,0,233,58a2.14,2.14,0,0,0,2.64,1.5,4.71,4.71,0,0,0,3.63-3.62l1.21-3.74a3.81,3.81,0,0,0-1.75-4C236.31,46.41,232.6,48.36,232.55,51Z" fill="#f4a28c"></path><polygon points="239.75 53.23 243.77 66.6 236.24 68.28 236.34 57.88 239.75 53.23" fill="#f4a28c"></polygon><path d="M232.5,53.64l-1.16,1.66a.68.68,0,0,0,.44,1.06l1.64.28Z" fill="#f4a28c"></path><path d="M236.36,59.27A6.53,6.53,0,0,0,239,57.39s.37,2.76-2.71,4.93Z" fill="#ce8172" opacity="0.31"></path><path d="M238.59,52.81A2.5,2.5,0,0,0,239,53a3.83,3.83,0,0,0,1.17.13A1.84,1.84,0,0,0,241,53c1-.46,1-2.1,1.1-3a5.62,5.62,0,0,0-.52-3.36c-1.36-2.21-8.43-3.94-9.88,1-.92,3.13,2.07,3.69,4.35,3.68.76,0,1.28.7,1.86,1.14A5.66,5.66,0,0,0,238.59,52.81Z" fill="#ffd200"></path><path d="M236.73,53.42s0-1.64,1.24-1.54,1.24,2.48-.43,2.73Z" fill="#f4a28c"></path><path d="M234.83,68.62l6.47-1.45s40.77-5,35.54,33.41c-4.91,36.07-8.5,45.49-8.5,45.49L231.6,147.3s-2-30.57-8-38.25S206.12,78.72,234.83,68.62Z" fill="#3498db"></path><path d="M232.4,69.54s-2.69,36.82,8.9,53.16c0,0-.66-38.78,9.3-55.52A26.44,26.44,0,0,0,232.4,69.54Z" fill="#fff"></path><path d="M230,132.49,212.82,150.1a24.42,24.42,0,0,0-4.69,27.32l9.68,20.91,5-1.21-4.8-18.8a17.75,17.75,0,0,1,8.17-19.67L245.87,147Z" fill="#24285b"></path><path d="M230,132.49l40.43,2.4s-.07,14.33-4.88,17.57c-2.67,1.8-12.58,5.36-20.88,8.18a13,13,0,0,0-8.18,16.46l6.68,20-5.66,1.49-12.22-24a17,17,0,0,1,4.23-20.71l12.19-10.2Z" fill="#24285b"></path><path d="M254.17,82.18A9.52,9.52,0,0,1,269,73.61a21.53,21.53,0,0,1,7,7.59c3.48,6.45,5.27,20.78,6.17,31.89a22.79,22.79,0,0,1-11.67,21.8l-23.83,13.16-3.43-4.48,18.08-14.12a12.27,12.27,0,0,0,3.25-15.54C260.33,106.22,255.06,94.39,254.17,82.18Z" fill="#3498db"></path><path d="M254.17,82.18A9.52,9.52,0,0,1,269,73.61a21.53,21.53,0,0,1,7,7.59c3.48,6.45,5.27,20.78,6.17,31.89a22.79,22.79,0,0,1-11.67,21.8l-23.83,13.16-3.43-4.48,18.08-14.12a12.27,12.27,0,0,0,3.25-15.54C260.33,106.22,255.06,94.39,254.17,82.18Z" fill="#fff" opacity="0.19"></path><path d="M243.21,143.57s-8.21,4.51-3.67,6.93,6.33-3.47,6.33-3.47Z" fill="#f4a28c"></path><path d="M232.4,69.54l-7.33,20.75,5.82,10L228.73,110,241.3,122.7S230.89,113.37,232.4,69.54Z" fill="#fff" opacity="0.27"></path><path d="M236.33,68.11c0-1.06.73-.86,1.75-1.15s2.07-1.43,2.95-.45c1.7,1.89-1.31,5.45-1.31,5.45h-2.78A15.21,15.21,0,0,1,236.33,68.11Z" fill="#24285b"></path><path d="M236.94,72h2.78s.26,21.56,2.09,34.3l-.51,16.44a40.14,40.14,0,0,1-7-18.27S234.63,84.24,236.94,72Z" fill="#24285b"></path><path d="M232.4,69.54,235.8,72,238.52,68l2.84,3.53,9.24-4.36S239.43,62.66,232.4,69.54Z" fill="#3498db"></path><path d="M232.4,69.54,235.8,72,238.52,68l2.84,3.53,9.24-4.36S239.43,62.66,232.4,69.54Z" fill="#fff" opacity="0.55"></path><path d="M250.6,67.18l1.54,27.43-7.2,4.29,4.25,8.93L241.3,122.7S240.82,83.7,250.6,67.18Z" fill="#fff" opacity="0.27"></path><path d="M152.19,87.79A2.64,2.64,0,0,0,153.45,89,4.68,4.68,0,0,0,159,87.83a3.38,3.38,0,0,0,.78-1.47c.52-2.25-2.07-4.42-4.22-3.86C153.68,83,151.33,85.89,152.19,87.79Z" fill="#f4a28c"></path><path d="M264.91,208.34S256.29,206,254.41,198c0,0,13.36-2.7,13.74,11.08Z" fill="#3498db" opacity="0.58"></path><path d="M266,207.48s-6-9.52-.73-18.43c0,0,10.16,6.46,5.65,18.45Z" fill="#3498db" opacity="0.73"></path><path d="M267.52,207.49s3.18-10.06,12.8-12c0,0,1.8,6.53-6.23,12Z" fill="#3498db"></path><polygon points="261.27 207.26 263.01 219.22 274.02 219.26 275.64 207.32 261.27 207.26" fill="#24285b"></polygon></svg>